<svg width="236" height="46" viewBox="0 0 236 46" fill="none" xmlns="http://www.w3.org/2000/svg">
<path d="M9.46969 26.6686H23.6753V33.254H0.344238V27.139L14.4558 6.81841H0.344238V0.233032H23.6753V6.34803L9.46969 26.6686Z" fill="black"/>
<path d="M28.9434 19.6275V33.254H36.9873V19.6275H28.9434Z" fill="black"/>
<path d="M49.8007 10.7226C50.4811 9.49961 51.42 8.5118 52.6175 7.75917C53.815 7.00656 55.2166 6.63025 56.8224 6.63025C58.7003 6.63025 60.4013 7.17903 61.9254 8.2766C63.4494 9.37416 64.6469 10.9421 65.5178 12.9804C66.416 15.0188 66.865 17.3864 66.865 20.0832C66.865 22.7801 66.416 25.1634 65.5178 27.2331C64.6469 29.2714 63.4494 30.8551 61.9254 31.984C60.4013 33.0816 58.7003 33.6303 56.8224 33.6303C55.2439 33.6303 53.8422 33.254 52.6175 32.5014C51.42 31.7488 50.4811 30.7767 49.8007 29.585V45.7662H42.8198V7.00655H49.8007V10.7226ZM59.7617 20.0832C59.7617 18.0763 59.2718 16.5083 58.292 15.3794C57.3395 14.2191 56.1556 13.639 54.7404 13.639C53.3524 13.639 52.1685 14.2191 51.1887 15.3794C50.2361 16.5397 49.7599 18.1233 49.7599 20.1303C49.7599 22.1373 50.2361 23.7209 51.1887 24.8812C52.1685 26.0415 53.3524 26.6216 54.7404 26.6216C56.1284 26.6216 57.3123 26.0415 58.292 24.8812C59.2718 23.6895 59.7617 22.0902 59.7617 20.0832Z" fill="black"/>
<path d="M77.5199 10.7226C78.2003 9.49961 79.1393 8.5118 80.3368 7.75917C81.5343 7.00656 82.9359 6.63025 84.5416 6.63025C86.4195 6.63025 88.1205 7.17903 89.6446 8.2766C91.1687 9.37416 92.3662 10.9421 93.2371 12.9804C94.1352 15.0188 94.5843 17.3864 94.5843 20.0832C94.5843 22.7801 94.1352 25.1634 93.2371 27.2331C92.3662 29.2714 91.1687 30.8551 89.6446 31.984C88.1205 33.0816 86.4195 33.6303 84.5416 33.6303C82.9631 33.6303 81.5615 33.254 80.3368 32.5014C79.1393 31.7488 78.2003 30.7767 77.5199 29.585V45.7662H70.5391V7.00655H77.5199V10.7226ZM87.4809 20.0832C87.4809 18.0763 86.991 16.5083 86.0113 15.3794C85.0587 14.2191 83.8748 13.639 82.4596 13.639C81.0716 13.639 79.8877 14.2191 78.9079 15.3794C77.9554 16.5397 77.4791 18.1233 77.4791 20.1303C77.4791 22.1373 77.9554 23.7209 78.9079 24.8812C79.8877 26.0415 81.0716 26.6216 82.4596 26.6216C83.8476 26.6216 85.0315 26.0415 86.0113 24.8812C86.991 23.6895 87.4809 22.0902 87.4809 20.0832Z" fill="black"/>
<path d="M144.828 0.22522L136.218 33.254H126.479L121.21 11.5171L115.752 33.254H106.013L97.6377 0.22522H106.248L111 24.2676L116.881 0.22522H125.726L131.372 24.2676L136.171 0.22522H144.828Z" fill="#FF0000"/>
<path d="M162.015 28.5627H152.102L150.513 33.254H143.741L153.351 6.6947H160.842L170.452 33.254H163.604L162.015 28.5627ZM160.35 23.5686L157.059 13.8453L153.805 23.5686H160.35Z" fill="#FF0000"/>
<path d="M182.975 33.5189C181.033 33.5189 179.292 33.2036 177.754 32.573C176.215 31.9424 174.979 31.0092 174.046 29.7733C173.138 28.5374 172.659 27.0493 172.608 25.3089H179.494C179.595 26.2926 179.936 27.0493 180.516 27.5789C181.096 28.0834 181.852 28.3356 182.786 28.3356C183.744 28.3356 184.501 28.1212 185.056 27.6924C185.611 27.2384 185.888 26.6205 185.888 25.8386C185.888 25.1828 185.661 24.6405 185.207 24.2117C184.778 23.7829 184.236 23.4298 183.58 23.1524C182.95 22.8749 182.042 22.5597 180.856 22.2065C179.141 21.6769 177.741 21.1472 176.657 20.6175C175.572 20.0878 174.639 19.3059 173.857 18.2718C173.075 17.2377 172.684 15.8883 172.684 14.2236C172.684 11.7518 173.579 9.82228 175.37 8.43504C177.161 7.02257 179.494 6.31635 182.37 6.31635C185.295 6.31635 187.654 7.02257 189.444 8.43504C191.235 9.82228 192.194 11.7644 192.32 14.2614H185.321C185.27 13.4039 184.955 12.7355 184.375 12.2562C183.795 11.7518 183.051 11.4996 182.143 11.4996C181.361 11.4996 180.73 11.714 180.251 12.1428C179.772 12.5463 179.532 13.139 179.532 13.9209C179.532 14.7785 179.936 15.4469 180.743 15.9261C181.55 16.4054 182.811 16.9224 184.526 17.4773C186.241 18.0574 187.628 18.6123 188.688 19.142C189.772 19.6717 190.706 20.441 191.487 21.4499C192.269 22.4588 192.66 23.7577 192.66 25.3468C192.66 26.8601 192.269 28.2347 191.487 29.4706C190.731 30.7065 189.621 31.6902 188.158 32.4217C186.695 33.1531 184.967 33.5189 182.975 33.5189Z" fill="#FF0000"/>
<path d="M215.739 6.6947V11.8779H208.702V33.254H202.232V11.8779H195.195V6.6947H215.739Z" fill="#FF0000"/>
<path d="M225.462 11.8779V17.2503H234.126V22.2444H225.462V28.0708H235.261V33.254H218.993V6.6947H235.261V11.8779H225.462Z" fill="#FF0000"/>
<path opacity="0.999" d="M33.2592 0.552124C31.7403 0.556178 30.285 1.16238 29.2125 2.23781C28.1399 3.31324 27.5376 4.77012 27.5376 6.28898C27.5375 7.58163 27.9739 8.83643 28.7762 9.84998L33.2854 16.1784L37.5018 10.1667C38.4725 9.10859 39.0111 7.72492 39.0113 6.28898C39.0112 4.76748 38.4068 3.3083 37.331 2.23243C36.2551 1.15657 34.7959 0.552148 33.2744 0.552139C33.2695 0.552133 33.2641 0.552118 33.2592 0.552124ZM33.3286 3.3933C33.6946 3.39328 34.0569 3.46534 34.395 3.60538C34.7332 3.74541 35.0404 3.95067 35.2991 4.20944C35.5579 4.46821 35.7632 4.77542 35.9032 5.11352C36.0432 5.45162 36.1153 5.814 36.1153 6.17995C36.1152 6.54588 36.0432 6.90822 35.9031 7.24629C35.763 7.58435 35.5578 7.89152 35.299 8.15026C35.0402 8.40899 34.7331 8.61423 34.395 8.75424C34.0569 8.89426 33.6945 8.96631 33.3286 8.96629C32.5896 8.96624 31.881 8.67267 31.3584 8.15014C30.8359 7.62761 30.5423 6.91892 30.5423 6.17995C30.5423 5.81403 30.6143 5.45168 30.7543 5.1136C30.8944 4.77552 31.0996 4.46832 31.3583 4.20956C31.6171 3.95079 31.9242 3.74553 32.2623 3.60547C32.6003 3.46542 32.9627 3.39332 33.3286 3.3933Z" fill="#FF0000"/>
</svg>
