<svg width="277" height="56" viewBox="0 0 277 56" fill="none" xmlns="http://www.w3.org/2000/svg">
<path d="M10.8767 32.4508H27.8085V40.3H0V33.0114L16.8197 8.79109H0V0.941895H27.8085V8.23042L10.8767 32.4508Z" fill="black"/>
<path d="M34.0879 24.0583V40.2999H43.6755V24.0583H34.0879Z" fill="black"/>
<path d="M58.9475 13.4445C59.7585 11.9868 60.8776 10.8094 62.3049 9.91235C63.7323 9.01529 65.4029 8.56677 67.3167 8.56677C69.555 8.56677 71.5825 9.22087 73.399 10.5291C75.2156 11.8373 76.6429 13.7061 77.681 16.1356C78.7514 18.5651 79.2867 21.3871 79.2867 24.6015C79.2867 27.816 78.7514 30.6567 77.681 33.1235C76.6429 35.553 75.2156 37.4406 73.399 38.7862C71.5825 40.0943 69.555 40.7485 67.3167 40.7485C65.4353 40.7485 63.7647 40.2999 62.3049 39.4029C60.8776 38.5058 59.7585 37.3471 58.9475 35.9268V55.2134H50.627V9.01528H58.9475V13.4445ZM70.8201 24.6015C70.8201 22.2094 70.2362 20.3405 69.0684 18.995C67.9331 17.612 66.522 16.9206 64.8352 16.9206C63.1808 16.9206 61.7697 17.612 60.6019 18.995C59.4665 20.3779 58.8989 22.2655 58.8989 24.6576C58.8989 27.0498 59.4665 28.9373 60.6019 30.3203C61.7697 31.7032 63.1808 32.3947 64.8352 32.3947C66.4895 32.3947 67.9006 31.7032 69.0684 30.3203C70.2362 28.8999 70.8201 26.9937 70.8201 24.6015Z" fill="black"/>
<path d="M91.9866 13.4445C92.7976 11.9868 93.9167 10.8094 95.3441 9.91235C96.7714 9.01529 98.4419 8.56677 100.356 8.56677C102.594 8.56677 104.622 9.22087 106.438 10.5291C108.255 11.8373 109.682 13.7061 110.72 16.1356C111.791 18.5651 112.326 21.3871 112.326 24.6015C112.326 27.816 111.791 30.6567 110.72 33.1235C109.682 35.553 108.255 37.4406 106.438 38.7862C104.622 40.0943 102.594 40.7485 100.356 40.7485C98.4744 40.7485 96.8038 40.2999 95.3441 39.4029C93.9167 38.5058 92.7976 37.3471 91.9866 35.9268V55.2134H83.666V9.01528H91.9866V13.4445ZM103.859 24.6015C103.859 22.2094 103.275 20.3405 102.108 18.995C100.972 17.612 99.5611 16.9206 97.8743 16.9206C96.2199 16.9206 94.8088 17.612 93.641 18.995C92.5056 20.3779 91.9379 22.2655 91.9379 24.6576C91.9379 27.0498 92.5056 28.9373 93.641 30.3203C94.8088 31.7032 96.2199 32.3947 97.8743 32.3947C99.5286 32.3947 100.94 31.7032 102.108 30.3203C103.275 28.8999 103.859 26.9937 103.859 24.6015Z" fill="black"/>
<path opacity="0.999" d="M39.2317 1.32227C37.4214 1.3271 35.6868 2.04963 34.4084 3.33144C33.13 4.61326 32.4121 6.34972 32.4121 8.16006C32.412 9.70079 32.9322 11.1964 33.8884 12.4045L39.263 19.9474L44.2885 12.782C45.4455 11.5208 46.0875 9.87158 46.0877 8.16006C46.0877 6.34657 45.3673 4.60735 44.0849 3.32501C42.8026 2.04268 41.0634 1.32228 39.2499 1.32227C39.2436 1.32226 39.238 1.32226 39.2317 1.32227ZM39.3145 4.70869C39.7507 4.70866 40.1826 4.79455 40.5856 4.96146C40.9886 5.12837 41.3547 5.37302 41.6631 5.68145C41.9716 5.98988 42.2162 6.35604 42.3831 6.75903C42.55 7.16202 42.6359 7.59394 42.6359 8.03013C42.6359 8.46629 42.55 8.89817 42.383 9.30111C42.2161 9.70406 41.9714 10.0702 41.663 10.3786C41.3546 10.687 40.9884 10.9316 40.5855 11.0985C40.1825 11.2653 39.7506 11.3512 39.3145 11.3512C38.4337 11.3511 37.589 11.0012 36.9662 10.3784C36.3434 9.75563 35.9935 8.91091 35.9934 8.03013C35.9934 7.59398 36.0793 7.16211 36.2462 6.75915C36.413 6.35619 36.6577 5.99002 36.9661 5.68159C37.2744 5.37317 37.6406 5.12851 38.0435 4.96157C38.4464 4.79464 38.8783 4.70871 39.3145 4.70869Z" fill="#6AC700"/>
<path d="M182.093 41.3691C179.453 41.3691 177.027 40.6705 174.813 39.2732C172.627 37.8759 170.88 35.9318 169.573 33.441C168.293 30.9198 167.653 28.0949 167.653 24.9662C167.653 21.8375 168.293 19.0278 169.573 16.5369C170.88 14.0461 172.627 12.1021 174.813 10.7048C177.027 9.30753 179.453 8.60889 182.093 8.60889C184.733 8.60889 187.147 9.30753 189.333 10.7048C191.547 12.1021 193.28 14.0461 194.533 16.5369C195.813 19.0278 196.453 21.8375 196.453 24.9662C196.453 28.0949 195.813 30.9198 194.533 33.441C193.253 35.9318 191.52 37.8759 189.333 39.2732C187.147 40.6705 184.733 41.3691 182.093 41.3691ZM182.093 34.2612C184.333 34.2612 186.12 33.4107 187.453 31.7096C188.813 30.0086 189.493 27.7608 189.493 24.9662C189.493 22.1413 188.813 19.8935 187.453 18.2228C186.12 16.5218 184.333 15.6712 182.093 15.6712C179.827 15.6712 178.013 16.5066 176.653 18.1772C175.32 19.8479 174.653 22.1109 174.653 24.9662C174.653 27.7911 175.32 30.0541 176.653 31.7552C178.013 33.4258 179.827 34.2612 182.093 34.2612Z" fill="#6AC700"/>
<path d="M168.748 0.422485L158.66 40.3815H147.248L141.074 14.0837L134.68 40.3815H123.269L113.456 0.422485H123.544L129.112 29.5094L136.003 0.422485H146.366L152.982 29.5094L158.604 0.422485H168.748Z" fill="#6AC700"/>
<path d="M216.347 41.0502L210.507 28.9759H208.867V41.0502H202.027V9.06458H213.507C215.721 9.06458 217.601 9.50502 219.147 10.3859C220.721 11.2668 221.894 12.4818 222.667 14.031C223.441 15.5498 223.827 17.2508 223.827 19.1341C223.827 21.2604 223.294 23.1589 222.227 24.8296C221.187 26.5002 219.641 27.6849 217.587 28.3835L224.067 41.0502H216.347ZM208.867 23.4627H213.107C214.361 23.4627 215.294 23.1133 215.907 22.4147C216.547 21.7161 216.867 20.7288 216.867 19.4531C216.867 18.238 216.547 17.2812 215.907 16.5826C215.294 15.8839 214.361 15.5346 213.107 15.5346H208.867V23.4627Z" fill="#6AC700"/>
<path d="M244.387 41.0502L234.947 26.9255V41.0502H228.107V9.06458H234.947V23.0982L244.307 9.06458H252.347L241.467 24.7384L252.747 41.0502H244.387Z" fill="#6AC700"/>
<path d="M266.148 41.3691C264.094 41.3691 262.254 40.9894 260.628 40.23C259.001 39.4706 257.694 38.3467 256.708 36.8583C255.748 35.3699 255.241 33.5777 255.188 31.4818H262.468C262.574 32.6665 262.934 33.5777 263.547 34.2156C264.161 34.8231 264.961 35.1269 265.947 35.1269C266.961 35.1269 267.761 34.8687 268.348 34.3523C268.934 33.8055 269.227 33.0613 269.227 32.1197C269.227 31.3299 268.988 30.6768 268.508 30.1605C268.054 29.6441 267.481 29.2188 266.788 28.8847C266.121 28.5505 265.161 28.1708 263.908 27.7456C262.094 27.1077 260.614 26.4698 259.468 25.8319C258.321 25.194 257.334 24.2524 256.508 23.007C255.681 21.7616 255.268 20.1365 255.268 18.1317C255.268 15.1549 256.214 12.8311 258.108 11.1604C260.001 9.45941 262.468 8.60889 265.508 8.60889C268.601 8.60889 271.094 9.45941 272.988 11.1604C274.881 12.8311 275.894 15.17 276.028 18.1772H268.628C268.574 17.1445 268.241 16.3395 267.628 15.7624C267.014 15.1549 266.228 14.8511 265.268 14.8511C264.441 14.8511 263.774 15.1093 263.268 15.6257C262.761 16.1117 262.508 16.8255 262.508 17.7672C262.508 18.7999 262.934 19.6049 263.788 20.182C264.641 20.7592 265.974 21.3819 267.788 22.0501C269.601 22.7488 271.068 23.417 272.188 24.0549C273.334 24.6928 274.321 25.6193 275.148 26.8343C275.974 28.0493 276.388 29.6137 276.388 31.5274C276.388 33.3499 275.974 35.0054 275.148 36.4938C274.348 37.9822 273.174 39.1669 271.628 40.0477C270.081 40.9286 268.254 41.3691 266.148 41.3691Z" fill="#6AC700"/>
</svg>
