<svg width="25" height="24" viewBox="0 0 25 24" fill="none" xmlns="http://www.w3.org/2000/svg">
<path d="M9.40039 12.3529L11.7533 14.7059L15.9004 10" stroke="#222222" stroke-width="1.9" stroke-linecap="round" stroke-linejoin="round"/>
<path fill-rule="evenodd" clip-rule="evenodd" d="M12.4004 4C7.98211 4 4.40039 7.58172 4.40039 12C4.40039 16.4183 7.98211 20 12.4004 20C16.8187 20 20.4004 16.4183 20.4004 12C20.4004 7.58172 16.8187 4 12.4004 4ZM2.40039 12C2.40039 6.47715 6.87754 2 12.4004 2C17.9232 2 22.4004 6.47715 22.4004 12C22.4004 17.5228 17.9232 22 12.4004 22C6.87754 22 2.40039 17.5228 2.40039 12Z" fill="#222222"/>
</svg>
