<svg width="25" height="24" viewBox="0 0 25 24" fill="none" xmlns="http://www.w3.org/2000/svg">
<path d="M15.1051 9.71094C14.8409 9.71094 14.5875 9.60598 14.4007 9.41916C14.2139 9.23233 14.1089 8.97894 14.1089 8.71473C14.1089 8.45052 14.2139 8.19713 14.4007 8.01031C14.5875 7.82348 14.8409 7.71853 15.1051 7.71853L17.4944 7.72313C18.7122 7.72616 19.8792 8.21128 20.7404 9.0724C21.6015 9.93352 22.0866 11.1006 22.0896 12.3184L22.0887 12.3322C22.0824 13.5476 21.5959 14.7111 20.7353 15.5693C19.8747 16.4275 18.7098 16.9107 17.4944 16.9136L15.1051 16.909C14.8409 16.909 14.5875 16.8041 14.4007 16.6173C14.2139 16.4304 14.1089 16.177 14.1089 15.9128C14.1089 15.6486 14.2139 15.3952 14.4007 15.2084C14.5875 15.0216 14.8409 14.9166 15.1051 14.9166H17.499C18.1871 14.9126 18.8458 14.6374 19.3324 14.1509C19.819 13.6643 20.0941 13.0056 20.0982 12.3175L20.0982 12.2972C20.0917 11.6101 19.815 10.9531 19.3279 10.4684C18.8408 9.98375 18.1825 9.71031 17.4953 9.70726L15.1061 9.71186L15.1051 9.71094ZM16.1032 11.2909C16.3554 11.3082 16.5915 11.4207 16.7638 11.6057C16.9361 11.7906 17.0317 12.0342 17.0311 12.2869C17.0305 12.5397 16.9338 12.7828 16.7607 12.967C16.5875 13.1511 16.3508 13.2625 16.0986 13.2787H9.23747C8.97791 13.272 8.73122 13.1642 8.54996 12.9783C8.3687 12.7924 8.2672 12.543 8.26708 12.2834C8.26696 12.0237 8.36823 11.7743 8.54932 11.5882C8.7304 11.4021 8.97699 11.2941 9.23655 11.2872L16.0995 11.2872L16.1032 11.2909ZM10.1867 14.9166C10.4463 14.9236 10.6929 15.0316 10.874 15.2177C11.055 15.4037 11.1563 15.6532 11.1562 15.9128C11.1561 16.1725 11.0546 16.4218 10.8733 16.6077C10.692 16.7936 10.4454 16.9014 10.1858 16.9081L7.84628 16.909C6.63313 16.9062 5.47011 16.4247 4.60987 15.5693C3.74964 14.7139 3.26166 13.5536 3.25194 12.3405L3.25102 12.2898C3.26035 11.0762 3.74825 9.91526 4.60869 9.0593C5.46913 8.20334 6.6326 7.72152 7.84628 7.71852L10.1821 7.72129C10.317 7.71418 10.4518 7.73456 10.5786 7.7812C10.7053 7.82783 10.8212 7.89975 10.9193 7.99257C11.0173 8.08539 11.0955 8.19718 11.149 8.32114C11.2026 8.44511 11.2303 8.57866 11.2306 8.71369C11.2309 8.84872 11.2038 8.9824 11.1508 9.10662C11.0979 9.23083 11.0202 9.34298 10.9226 9.43625C10.825 9.52953 10.7094 9.60197 10.5829 9.64919C10.4564 9.69641 10.3216 9.71742 10.1867 9.71094L7.84628 9.71094C7.15765 9.71484 6.49834 9.99013 6.01141 10.4771C5.52447 10.964 5.24918 11.6233 5.24528 12.3119C5.24802 13.0014 5.52313 13.6619 6.01066 14.1494C6.4982 14.6369 7.15865 14.912 7.84812 14.9148L10.1867 14.9166Z" fill="#222222"/>
</svg>
