<svg width="24" height="24" viewBox="0 0 24 24" fill="none" xmlns="http://www.w3.org/2000/svg">
<path fill-rule="evenodd" clip-rule="evenodd" d="M3.16427 6.68493C3.37003 5.49156 4.05163 4.53428 4.78581 3.80011C5.95886 2.62708 7.89927 2.76651 8.89257 4.09519L10.514 6.26415C11.4069 7.45849 11.287 9.12732 10.2326 10.1818L10.1214 10.2929C9.73089 10.6834 9.73089 11.3166 10.1214 11.7071L12.293 13.8787C12.6835 14.2692 13.3167 14.2692 13.7072 13.8787L13.8184 13.7675C14.8728 12.7131 16.5416 12.5932 17.736 13.4861L19.9213 15.1197C21.2414 16.1066 21.3799 18.0345 20.2144 19.1999C19.4721 19.9422 18.5043 20.6349 17.2963 20.8435C15.0722 21.2275 10.8094 21.2235 6.79298 17.2071C2.77471 13.1889 2.78174 8.90351 3.16427 6.68493ZM6.20001 5.21434C5.62388 5.79045 5.24428 6.39204 5.13519 7.02476C4.8267 8.8139 4.78142 12.3671 8.2072 15.7929C11.6346 19.2203 15.168 19.1814 16.956 18.8727C17.6009 18.7613 18.2129 18.373 18.8002 17.7857C19.1041 17.4817 19.068 16.979 18.7237 16.7216L16.5384 15.0879C16.1403 14.7903 15.5841 14.8303 15.2326 15.1817L15.1214 15.2929C13.9498 16.4645 12.0503 16.4645 10.8788 15.2929L8.7072 13.1213C7.53563 11.9498 7.53562 10.0503 8.7072 8.8787L8.81836 8.76754C9.16984 8.41606 9.2098 7.85978 8.91218 7.46167L7.29071 5.29271C7.0269 4.93982 6.51155 4.9028 6.20001 5.21434Z" fill="#111111"/>
</svg>
